# AST/ASF file generated using VICON BodyLanguage
# -----------------------------------------------
:version 1.10
:name VICON
:units
  mass 1.0
  length 0.45
  angle deg
:documentation
   .ast/.asf automatically generated from VICON data using
   VICON BodyBuilder and BodyLanguage model FoxedUp or BRILLIANT.MOD
:root
   order TX TY TZ RX RY RZ
   axis XYZ
   position 0 0 0  
   orientation 0 0 0 
:bonedata
  begin
     id 1 
     name lhipjoint
     direction 0.612567 -0.751349 0.245431 
     length 2.42285 
     axis 0 0 0  XYZ
  end
  begin
     id 2 
     name lfemur
     direction 0.34202 -0.939693 0  
     length 7.11304  
     axis 0 0 20  XYZ
    dof rx ry rz
    limits (-160.0 20.0)
           (-70.0 70.0)
           (-60.0 70.0)
  end
  begin
     id 3 
     name ltibia
     direction 0.34202 -0.939693 0   
     length 7.84529   
     axis 0 0 20   XYZ
    dof rx
    limits (-10.0 170.0)
  end
  begin
     id 4 
     name lfoot
     direction 0.0779239 -0.214094 0.9737   
     length 1.97176   
     axis -90 7.62852e-016 20   XYZ
    dof rx rz
    limits (-45.0 90.0)
           (-70.0 20.0)
  end
  begin
     id 5 
     name ltoes
     direction 1.53565e-011 -4.21709e-011 1   
     length 0.993197   
     axis -90 7.62852e-016 20   XYZ
    dof rx
    limits (-90.0 20.0)
  end
  begin
     id 6 
     name rhipjoint
     direction -0.665722 -0.709315 0.231701   
     length 2.56642  
     axis 0 0 0  XYZ 
  end
  begin
     id 7 
     name rfemur
     direction -0.34202 -0.939693 0   
     length 7.32108   
     axis 0 0 -20   XYZ
    dof rx ry rz
    limits (-160.0 20.0)
           (-70.0 70.0)
           (-70.0 60.0)
  end
  begin
     id 8 
     name rtibia
     direction -0.34202 -0.939693 0   
     length 7.81254   
     axis 0 0 -20   XYZ
    dof rx
    limits (-10.0 170.0)
 end
 begin
     id 9 
     name rfoot
     direction -0.0832806 -0.228812 0.969902   
     length 2.08278  
     axis -90 -7.62852e-016 -20   XYZ
    dof rx rz
    limits (-45.0 90.0)
           (-20.0 70.0)
  end
  begin
     id 10 
     name rtoes
     direction -1.53589e-011 -4.22086e-011 1   
     length 1.04609   
     axis -90 -7.62852e-016 -20   XYZ
    dof rx
    limits (-90.0 20.0)
  end
  begin
     id 11 
     name lowerback
     direction -0.00506013 0.988403 -0.151766   
     length 2.01978   
     axis 0 0 0   XYZ
    dof rx ry rz
    limits (-20.0 45.0)
           (-30.0 30.0)
           (-30.0 30.0)
  end
  begin
     id 12 
     name upperback
     direction -0.00836389 0.99968 0.0238859   
     length 2.01276   
     axis 0 0 0   XYZ
    dof rx ry rz
    limits (-20.0 45.0)
           (-30.0 30.0)
           (-30.0 30.0)
  end
  begin
     id 13 
     name thorax
     direction -0.00684136 0.995386 0.0957043   
     length 2.07303   
     axis 0 0 0   XYZ
    dof rx ry rz
    limits (-20.0 45.0)
           (-30.0 30.0)
           (-30.0 30.0)
  end
  begin
     id 14 
     name lowerneck
     direction -0.0161045 0.999661 0.0204485   
     length 1.91243   
     axis 0 0 0   XYZ
    dof rx ry rz
    limits (-20.0 45.0)
           (-30.0 30.0)
           (-30.0 30.0)
  end
  begin
     id 15 
     name upperneck
     direction 0.0553583 0.990946 -0.122319   
     length 1.91574   
     axis 0 0 0   XYZ
    dof rx ry rz
    limits (-20.0 45.0)
           (-30.0 30.0)
           (-30.0 30.0)
  end
  begin
     id 16
     name head
     direction 0.0180273 0.998839 -0.0446756  
     length 1.92693  
     axis 0 0 0   XYZ
    dof rx ry rz
    limits (-20.0 45.0)
           (-30.0 30.0)
           (-30.0 30.0)
  end
  begin
     id 17 
     name lclavicle
     direction 0.945646 0.319323 -0.0615358  
     length 4.0076  
     axis 0 0 0   XYZ
    dof ry rz
    limits (-20.0 10.0)
           (0.0 20.0)
  end
  begin
     id 18 
     name lhumerus
     direction 1 -4.48967e-011 -2.79996e-027   
     length 5.64147   
     axis 180 -30 -90   XYZ
    dof rx ry rz
    limits (-60.0 90.0)
           (-90.0 90.0)
           (-90.0 90.0)
  end
  begin
     id 19
     name lradius
     direction 1 -4.48976e-011 -9.5122e-027   
     length 2.86444   
     axis 180 -30 -90   XYZ
    dof rx
    limits (-10.0 170.0)
  end
  begin
     id 20
     name lwrist
     direction 1 -4.48983e-011 -1.24047e-026   
     length 1.43222   
     axis 9.05591e-015 90 90   XYZ
    dof ry
    limits (-180.0 0.0)
 end
  begin
     id 21 
     name lhand
     direction 1 -4.4892e-011 -2.48094e-026   
     length 0.722123   
     axis 1.58305e-014 90 90   XYZ
    dof rx rz
    limits (-90.0 90.0)
           (-45.0 45.0)
  end
  begin
     id 22 
     name lfingers
     direction 1 -4.48895e-011 -4.96187e-026   
     length 0.582194   
     axis 3.1661e-014 90 90   XYZ
    dof rx
    limits (0.0 90.0)
  end
  begin
     id 23
     name lthumb
     direction 0.707107 -6.34961e-011 0.707107   
     length 0.835918   
     axis -90 45 2.85299e-015   XYZ
    dof rx rz
    limits (-45.0 45.0)
           (-45.0 45.0)
  end
  begin
     id 24 
     name rclavicle
     direction -0.932635 0.324218 -0.15835   
     length 3.65819  
     axis 0 0 0   XYZ 
    dof ry rz
    limits (-10.0 20.0)
           (-20.0 0.0)
  end
  begin
     id 25 
     name rhumerus
     direction -1 -4.48965e-011 -4.02296e-027  
     length 5.44729   
     axis 180 30 90   XYZ
    dof rx ry rz
    limits (-90.0 60.0)
           (-90.0 90.0)
           (-90.0 90.0)
  end
  begin
     id 26 
     name rradius
     direction -1 -4.48957e-011 -8.81087e-027   
     length 3.08821   
     axis 180 30 90   XYZ
    dof rx
    limits (-10.0 170.0)
  end
  begin
     id 27 
     name rwrist
     direction -1 -4.49015e-011 -1.24047e-026   
     length 1.5441   
     axis 9.05591e-015 -90 -90   XYZ
    dof ry
    limits (-180.0 0.0)
  end
  begin
     id 28
     name rhand
     direction -1 -4.4891e-011 -2.48094e-026   
     length 0.821049   
     axis 1.58305e-014 -90 -90   XYZ
    dof rx rz
    limits (-90.0 90.0)
           (-45.0 45.0)
  end
  begin
     id 29
     name rfingers
     direction -1 -4.48985e-011 -4.96187e-026   
     length 0.661951   
     axis 3.1661e-014 -90 -90   XYZ
    dof rx
    limits (0.0 90.0)
  end
  begin
     id 30
     name rthumb
     direction -0.707107 -6.34906e-011 0.707107   
     length 0.950433   
     axis -90 -45 -2.85299e-015   XYZ
    dof rx rz
    limits (-45.0 45.0)
           (-45.0 45.0)
  end
:hierarchy
  begin
    root lhipjoint rhipjoint lowerback
    lhipjoint lfemur
    lfemur ltibia
    ltibia lfoot
    lfoot ltoes
    rhipjoint rfemur
    rfemur rtibia
    rtibia rfoot
    rfoot rtoes
    lowerback upperback
    upperback thorax
    thorax lowerneck lclavicle rclavicle
    lowerneck upperneck
    upperneck head
    lclavicle lhumerus
    lhumerus lradius
    lradius lwrist
    lwrist lhand lthumb
    lhand lfingers
    rclavicle rhumerus
    rhumerus rradius
    rradius rwrist
    rwrist rhand rthumb
    rhand rfingers
  end

#!OML:ASF F:\VICON\USERDATA\INSTALL\rory3\rory3.ASF
:FULLY-SPECIFIED
:DEGREES
2634
root 3.75478 17.5618 -0.376305 175.193 97.1698 179.143
lowerback 1.83171 -1.36918 -3.70583
upperback -3.89849 -2.03932 -3.02268
thorax -5.04602 -0.895505 -0.934945
lowerneck -2.9546 -4.61866 -4.88666
upperneck 4.93512 -6.56992 12.8841
head 2.53979 -2.96045 4.46547
rclavicle -1.19271e-015 2.38542e-014
rhumerus -23.9429 -17.8334 -64.9678
rradius 122.65
rwrist -7.66891
rhand -19.709 9.68952
rfingers 7.12502
rthumb 6.62077 -20.187
lclavicle -1.19271e-015 2.38542e-014
lhumerus -20.3236 1.66732 68.3048
lradius 129.169
lwrist 19.8322
lhand -27.5796 -8.25654
lfingers 7.12502
lthumb -0.979914 21.721
rfemur 2.96484 3.90913 16.9484
rtibia 18.1011
rfoot -19.4374 -4.10046
rtoes -8.47439
lfemur 5.27042 2.50047 -18.2677
ltibia 13.668
lfoot -15.6622 2.03067
ltoes -2.03235
2635
root 3.74378 17.5551 -0.383736 173.801 97.0299 177.989
lowerback 2.18246 -1.32701 -3.48415
upperback -3.74373 -1.99082 -2.92892
thorax -5.08744 -0.881835 -0.95674
lowerneck -3.25132 -4.20566 -4.71368
upperneck 5.22648 -6.04568 13.0497
head 2.62744 -2.66925 4.50447
rclavicle -2.5842e-015 7.95139e-015
rhumerus -23.7679 -17.731 -64.4752
rradius 122.374
rwrist -2.58013
rhand -20.4047 10.5594
rfingers 7.12502
rthumb 5.94912 -19.3371
lclavicle -2.5842e-015 7.95139e-015
lhumerus -19.5523 2.0375 67.6668
lradius 129.03
lwrist 17.7697
lhand -28.5447 -9.67467
lfingers 7.12502
lthumb -1.91197 20.2965
rfemur 3.19775 3.71371 17.0697
rtibia 18.1534
rfoot -19.4997 -4.04757
rtoes -8.5445
lfemur 5.40353 2.49672 -18.108
ltibia 13.8475
lfoot -15.7365 1.76373
ltoes -1.59584
2636
root 3.73317 17.5472 -0.395355 173.892 96.8404 178.334
lowerback 2.55821 -1.28431 -3.3605
upperback -3.59288 -1.94697 -2.89451
thorax -5.14657 -0.866649 -0.985202
lowerneck -3.60313 -3.86349 -4.52237
upperneck 5.53323 -5.61652 13.1061
head 2.73413 -2.42583 4.50262
rclavicle 1.49089e-014 1.27222e-014
rhumerus -23.4709 -17.7455 -63.7549
rradius 122.097
rwrist 1.79736
rhand -20.7055 11.488
rfingers 7.12502
rthumb 5.65873 -18.4165
lclavicle 1.49089e-014 1.27222e-014
lhumerus -18.5701 2.52939 66.9356
lradius 128.833
lwrist 16.5012
lhand -29.065 -10.3109
lfingers 7.12502
lthumb -2.41446 19.6551
rfemur 3.449 3.43654 16.9361
rtibia 18.2159
rfoot -19.5273 -3.83816
rtoes -8.3021
lfemur 5.57886 2.4276 -18.1886
ltibia 13.9661
lfoot -15.7631 1.54825
ltoes -1.24292
2637
root 3.72497 17.5411 -0.39844 174.723 96.7677 179.401
lowerback 2.85497 -1.22715 -3.40094
upperback -3.44491 -1.88604 -2.87251
thorax -5.15929 -0.836717 -0.938336
lowerneck -4.00269 -3.52926 -4.25452
upperneck 5.88485 -5.20553 13.1071
head 2.86121 -2.1878 4.47069
rclavicle -3.24019e-014 -1.03368e-014
rhumerus -23.0938 -17.7189 -63.0325
rradius 121.663
rwrist 6.17361
rhand -21.4236 12.2489
rfingers 7.12502
rthumb 4.96535 -17.6729
lclavicle -3.24019e-014 -1.03368e-014
lhumerus -17.5049 3.12698 66.0144
lradius 128.614
lwrist 15.8819
lhand -29.6724 -9.97652
lfingers 7.12502
lthumb -3.00111 19.9821
rfemur 3.6434 3.38051 16.7841
rtibia 18.3035
rfoot -19.5673 -3.75345
rtoes -8.57155
lfemur 5.76499 2.45813 -18.3198
ltibia 14.0194
lfoot -15.7208 1.46385
ltoes -1.49227
2638
root 3.71966 17.5405 -0.39208 174.736 96.8245 179.617
lowerback 3.10634 -1.1137 -3.47188
upperback -3.33525 -1.74794 -2.7777
thorax -5.18371 -0.765778 -0.805708
lowerneck -4.33208 -3.21409 -4.11357
upperneck 6.24113 -4.82303 13.2262
head 2.98755 -1.96391 4.49793
rclavicle 3.65764e-014 -1.27222e-014
rhumerus -22.7168 -17.8189 -62.1101
rradius 121.153
rwrist 10.7958
rhand -21.9951 12.7131
rfingers 7.12502
rthumb 4.41347 -17.2209
lclavicle 3.65764e-014 -1.27222e-014
lhumerus -16.4218 3.62939 65.0981
lradius 128.41
lwrist 15.9511
lhand -30.4179 -9.59253
lfingers 7.12502
lthumb -3.72102 20.3547
rfemur 3.78219 3.62237 16.8425
rtibia 18.399
rfoot -19.6723 -3.92093
rtoes -8.85834
lfemur 5.942 2.50287 -18.3049
ltibia 14.0273
lfoot -15.6966 1.42396
ltoes -1.50929
2639
root 3.71469 17.5394 -0.39162 174.918 96.8319 179.938
lowerback 3.31453 -1.01624 -3.45633
upperback -3.2594 -1.62515 -2.6879
thorax -5.22186 -0.705299 -0.726796
lowerneck -4.61833 -2.96488 -4.03856
upperneck 6.5673 -4.52494 13.3383
head 3.10677 -1.78612 4.53197
rclavicle 9.74045e-015 -1.51076e-014
rhumerus -22.1905 -18.1756 -60.8891
rradius 120.604
rwrist 15.3531
rhand -21.8952 13.3337
rfingers 7.12502
rthumb 4.50996 -16.5983
lclavicle 9.74045e-015 -1.51076e-014
lhumerus -15.3182 4.18309 64.1085
lradius 128.308
lwrist 17.0581
lhand -30.7507 -9.18385
lfingers 7.12502
lthumb -4.04242 20.7575
rfemur 3.86409 3.69761 16.83
rtibia 18.478
rfoot -19.6896 -4.08526
rtoes -9.13382
lfemur 6.06712 2.52336 -18.3296
ltibia 14.0097
lfoot -15.6603 1.3966
ltoes -1.61455
2640
root 3.70946 17.5374 -0.396172 174.761 96.8043 179.867
lowerback 3.52151 -0.958099 -3.33077
upperback -3.23454 -1.55031 -2.61271
thorax -5.31559 -0.67181 -0.721231
lowerneck -4.89641 -2.71937 -3.81446
upperneck 6.92029 -4.23819 13.3322
head 3.2282 -1.61361 4.50502
rclavicle 2.24627e-014 -1.35174e-014
rhumerus -21.5952 -18.516 -59.6111
rradius 120.098
rwrist 19.1815
rhand -21.9686 14.0139
rfingers 7.12502
rthumb 4.43909 -15.9196
lclavicle 2.24627e-014 -1.35174e-014
lhumerus -14.3447 4.81801 62.8968
lradius 128.564
lwrist 19.2891
lhand -30.9024 -7.85144
lfingers 7.12502
lthumb -4.1889 22.0871
rfemur 3.92339 3.72375 16.835
rtibia 18.4964
rfoot -19.6839 -4.11292
rtoes -8.96044
lfemur 6.14415 2.53873 -18.3244
ltibia 14.0023
lfoot -15.6398 1.35663
ltoes -1.50098
2641
root 3.70727 17.5403 -0.398843 174.771 96.7586 179.852
lowerback 3.59011 -0.921496 -3.21428
upperback -3.2356 -1.49672 -2.53365
thorax -5.35675 -0.648582 -0.707316
lowerneck -5.1566 -2.48288 -3.56497
upperneck 7.18716 -3.9548 13.2645
head 3.32052 -1.44883 4.45517
rclavicle -1.74931e-014 -7.15625e-015
rhumerus -20.9464 -18.7116 -58.3261
rradius 119.644
rwrist 22.2326
rhand -22.7008 14.3099
rfingers 7.12502
rthumb 3.73201 -15.6371
lclavicle -1.74931e-014 -7.15625e-015
lhumerus -13.2956 5.50883 61.6066
lradius 128.892
lwrist 22.064
lhand -31.1745 -6.46928
lfingers 7.12502
lthumb -4.45164 23.4639
rfemur 3.88445 3.74435 16.8316
rtibia 18.4984
rfoot -19.6828 -4.17531
rtoes -8.87411
lfemur 6.09731 2.59789 -18.3153
ltibia 13.9848
lfoot -15.5476 1.29764
ltoes -1.50115
2642
root 3.70906 17.5443 -0.40183 174.925 96.7068 179.924
lowerback 3.58857 -0.901362 -3.0894
upperback -3.27259 -1.46073 -2.43202
thorax -5.39484 -0.633653 -0.674324
lowerneck -5.45501 -2.29488 -3.4123
upperneck 7.51657 -3.73943 13.2059
head 3.44666 -1.31663 4.42188
rclavicle 1.5704e-014 3.18055e-014
rhumerus -20.1281 -18.8325 -57.001
rradius 119.214
rwrist 24.5433
rhand -23.6354 14.2085
rfingers 7.12502
rthumb 2.82951 -15.7525
lclavicle 1.5704e-014 3.18055e-014
lhumerus -12.4483 6.21194 60.2766
lradius 129.226
lwrist 24.757
lhand -31.6429 -5.4314
lfingers 7.12502
lthumb -4.90397 24.4919
rfemur 3.82649 3.76159 16.8168
rtibia 18.4934
rfoot -19.7127 -4.25726
rtoes -8.85475
lfemur 6.01572 2.59265 -18.3355
ltibia 13.9469
lfoot -15.4866 1.27791
ltoes -1.89145
